<svg xmlns="http://www.w3.org/2000/svg" width="23" height="23" viewBox="0 0 23 23">
  <g id="Group_33" data-name="Group 33" transform="translate(-65.16 -64.396)">
    <g id="Layer_1" data-name="Layer 1" transform="translate(65.16 64.396)">
      <path id="Path_21" data-name="Path 21" d="M88.16,75.9c0,.965-1.549,1.713-1.787,2.6-.246.921.714,2.342.247,3.148s-2.188.694-2.852,1.358-.54,2.379-1.358,2.852-2.227-.493-3.148-.247c-.89.238-1.638,1.787-2.6,1.787s-1.713-1.549-2.6-1.787c-.921-.246-2.342.714-3.148.247S70.215,83.668,69.552,83s-2.379-.54-2.852-1.358.493-2.227.247-3.148c-.238-.89-1.787-1.638-1.787-2.6s1.549-1.713,1.787-2.6c.246-.921-.714-2.342-.247-3.148s2.188-.694,2.852-1.358.54-2.379,1.358-2.852,2.227.493,3.148.247c.89-.238,1.638-1.787,2.6-1.787s1.713,1.549,2.6,1.787c.921.246,2.342-.714,3.148-.247s.694,2.188,1.358,2.852,2.379.54,2.852,1.358-.493,2.227-.247,3.148C86.612,74.182,88.16,74.931,88.16,75.9Z" transform="translate(-65.16 -64.396)" fill="#dd302c"/>
    </g>
    <g id="Layer_2" data-name="Layer 2" transform="translate(68.441 68.415)">
      <g id="Group_29" data-name="Group 29" transform="translate(0 4.995)">
        <path id="Path_22" data-name="Path 22" d="M169.3,349.647h-1.143a.115.115,0,0,1-.13-.13v-.423a.115.115,0,0,1,.13-.13h.973a.083.083,0,0,0,.071-.031.119.119,0,0,0,.024-.074.143.143,0,0,0-.024-.09.1.1,0,0,0-.071-.033l-.543-.076a.82.82,0,0,1-.407-.168.535.535,0,0,1-.154-.432v-.38a.577.577,0,0,1,.2-.474.844.844,0,0,1,.55-.163h1.013a.115.115,0,0,1,.13.13v.431a.115.115,0,0,1-.13.13h-.843q-.1,0-.1.108a.1.1,0,0,0,.1.116l.539.072a.988.988,0,0,1,.3.089.46.46,0,0,1,.2.186.652.652,0,0,1,.071.326v.38a.578.578,0,0,1-.2.472A.838.838,0,0,1,169.3,349.647Z" transform="translate(-168.026 -347.041)" fill="#fff"/>
        <path id="Path_23" data-name="Path 23" d="M244.509,349.647h-.561a.115.115,0,0,1-.13-.13v-2.345a.115.115,0,0,1,.13-.13h1.107a1.224,1.224,0,0,1,.516.089.528.528,0,0,1,.262.248.847.847,0,0,1,.076.369v.463a.847.847,0,0,1-.076.369.527.527,0,0,1-.262.248,1.222,1.222,0,0,1-.516.089h-.416v.6A.115.115,0,0,1,244.509,349.647Zm.123-1.929v.546h.326a.148.148,0,0,0,.137-.054.234.234,0,0,0,.033-.123V347.9a.232.232,0,0,0-.033-.125.151.151,0,0,0-.137-.052Z" transform="translate(-241.401 -347.042)" fill="#fff"/>
        <path id="Path_24" data-name="Path 24" d="M323.007,349.647h-1.679a.115.115,0,0,1-.13-.13v-2.345a.115.115,0,0,1,.13-.13h1.679a.115.115,0,0,1,.13.13v.423a.115.115,0,0,1-.13.13h-1V348h.706a.115.115,0,0,1,.13.13v.387a.115.115,0,0,1-.13.13h-.706v.311h1a.115.115,0,0,1,.13.13v.423A.115.115,0,0,1,323.007,349.647Z" transform="translate(-316.313 -347.042)" fill="#fff"/>
        <path id="Path_25" data-name="Path 25" d="M395.359,349.647h-.883a1.038,1.038,0,0,1-.673-.181.684.684,0,0,1-.217-.557v-1.125a.689.689,0,0,1,.217-.561,1.039,1.039,0,0,1,.673-.181h.883a.115.115,0,0,1,.13.13v.438a.115.115,0,0,1-.13.13h-.727q-.221,0-.221.181v.861q0,.174.221.174h.727a.115.115,0,0,1,.13.13v.431A.115.115,0,0,1,395.359,349.647Z" transform="translate(-386.393 -347.042)" fill="#fff"/>
        <path id="Path_26" data-name="Path 26" d="M464.4,349.647a.115.115,0,0,1-.13-.13v-.431a.115.115,0,0,1,.13-.13h.358V347.74H464.4a.115.115,0,0,1-.13-.13v-.438a.115.115,0,0,1,.13-.13h1.542a.115.115,0,0,1,.13.13v.438a.115.115,0,0,1-.13.13h-.351v1.216h.351a.115.115,0,0,1,.13.13v.431a.115.115,0,0,1-.13.13Z" transform="translate(-454.822 -347.042)" fill="#fff"/>
        <path id="Path_27" data-name="Path 27" d="M533.82,349.517a.115.115,0,0,1-.13.13h-.532a.115.115,0,0,1-.13-.13v-.955a1.07,1.07,0,0,1,.034-.25,2.743,2.743,0,0,1,.107-.329l.315-.821a.173.173,0,0,1,.185-.119h.973a.17.17,0,0,1,.181.119l.315.821a2.777,2.777,0,0,1,.107.329,1.076,1.076,0,0,1,.034.25v.955a.115.115,0,0,1-.13.13H534.6q-.141,0-.141-.13v-.507h-.641Zm.206-1.715-.17.55h.568l-.17-.55q-.025-.061-.069-.061h-.09Q534.051,347.74,534.026,347.8Z" transform="translate(-521.387 -347.042)" fill="#fff"/>
        <path id="Path_28" data-name="Path 28" d="M619.528,349.647h-1.842a.115.115,0,0,1-.13-.13v-2.345a.115.115,0,0,1,.13-.13h.561a.115.115,0,0,1,.13.13v1.791h.5v-.586a.115.115,0,0,1,.13-.13h.525a.115.115,0,0,1,.13.13v1.14A.115.115,0,0,1,619.528,349.647Z" transform="translate(-603.22 -347.042)" fill="#fff"/>
        <path id="Path_29" data-name="Path 29" d="M243.059,459.812a.887.887,0,0,1-.049.3.52.52,0,0,1-.172.233.874.874,0,0,1-.342.15,3,3,0,0,1-1.118,0,.873.873,0,0,1-.342-.15.533.533,0,0,1-.174-.233.858.858,0,0,1-.051-.3v-1.234a.858.858,0,0,1,.051-.3.534.534,0,0,1,.174-.233.891.891,0,0,1,.342-.152,2.907,2.907,0,0,1,1.118,0,.892.892,0,0,1,.342.152.521.521,0,0,1,.172.233.886.886,0,0,1,.049.3Zm-1.426-.13a.156.156,0,0,0,.054.121.667.667,0,0,0,.5,0,.159.159,0,0,0,.052-.121v-.973a.153.153,0,0,0-.052-.119.692.692,0,0,0-.5,0,.151.151,0,0,0-.054.119Z" transform="translate(-238.491 -454.303)" fill="#fff"/>
        <path id="Path_30" data-name="Path 30" d="M326.372,462.143h-.561a.115.115,0,0,1-.13-.13v-2.345a.115.115,0,0,1,.13-.13h1.614a.115.115,0,0,1,.13.13v.431a.115.115,0,0,1-.13.13H326.5v.376h.63a.115.115,0,0,1,.13.13v.434a.115.115,0,0,1-.13.13h-.63v.713A.115.115,0,0,1,326.372,462.143Z" transform="translate(-320.653 -455.95)" fill="#fff"/>
        <path id="Path_31" data-name="Path 31" d="M396.49,462.143h-.561a.115.115,0,0,1-.13-.13v-2.345a.115.115,0,0,1,.13-.13h1.614a.115.115,0,0,1,.13.13v.431a.115.115,0,0,1-.13.13h-.923v.376h.63a.115.115,0,0,1,.13.13v.434a.115.115,0,0,1-.13.13h-.63v.713A.115.115,0,0,1,396.49,462.143Z" transform="translate(-388.535 -455.95)" fill="#fff"/>
        <path id="Path_32" data-name="Path 32" d="M467.727,462.143h-1.679a.115.115,0,0,1-.13-.13v-2.345a.115.115,0,0,1,.13-.13h1.679a.115.115,0,0,1,.13.13v.423a.115.115,0,0,1-.13.13h-1v.279h.706a.115.115,0,0,1,.13.13v.387a.115.115,0,0,1-.13.13h-.706v.311h1a.115.115,0,0,1,.13.13v.423A.115.115,0,0,1,467.727,462.143Z" transform="translate(-456.417 -455.95)" fill="#fff"/>
        <path id="Path_33" data-name="Path 33" d="M540.807,462.143h-.557a.115.115,0,0,1-.13-.13v-2.345a.115.115,0,0,1,.13-.13h1.2a.988.988,0,0,1,.427.076.455.455,0,0,1,.221.212.725.725,0,0,1,.065.317v.167a.673.673,0,0,1-.043.257.288.288,0,0,1-.159.156.473.473,0,0,1,.318.159.538.538,0,0,1,.119.365v.767a.115.115,0,0,1-.13.13h-.561a.115.115,0,0,1-.13-.13v-.554a.185.185,0,0,0-.031-.119.134.134,0,0,0-.107-.036h-.507v.709A.115.115,0,0,1,540.807,462.143Zm.13-1.954v.463h.271a.142.142,0,0,0,.127-.049.214.214,0,0,0,.033-.121v-.123a.214.214,0,0,0-.033-.121.142.142,0,0,0-.127-.049Z" transform="translate(-528.253 -455.95)" fill="#fff"/>
      </g>
      <g id="Group_32" data-name="Group 32" transform="translate(3.34 0)">
        <g id="Group_30" data-name="Group 30">
          <path id="Path_34" data-name="Path 34" d="M273.842,190.5l.163.377a.146.146,0,0,0,.121.088l.409.038a.147.147,0,0,1,.083.256l-.309.272a.147.147,0,0,0-.046.142l.09.4a.147.147,0,0,1-.218.158l-.354-.21a.146.146,0,0,0-.149,0l-.354.21a.147.147,0,0,1-.218-.158l.09-.4a.147.147,0,0,0-.046-.142l-.309-.272a.147.147,0,0,1,.083-.256l.409-.038a.147.147,0,0,0,.121-.088l.163-.377A.147.147,0,0,1,273.842,190.5Z" transform="translate(-272.747 -190.407)" fill="#fff"/>
          <path id="Path_35" data-name="Path 35" d="M352.38,190.5l.163.377a.147.147,0,0,0,.121.088l.409.038a.147.147,0,0,1,.083.256l-.309.272a.147.147,0,0,0-.046.142l.09.4a.147.147,0,0,1-.218.158l-.354-.21a.147.147,0,0,0-.149,0l-.354.21a.147.147,0,0,1-.218-.158l.09-.4a.147.147,0,0,0-.046-.142l-.309-.272a.147.147,0,0,1,.083-.256l.409-.038a.147.147,0,0,0,.121-.088l.163-.377A.147.147,0,0,1,352.38,190.5Z" transform="translate(-348.78 -190.407)" fill="#fff"/>
          <path id="Path_36" data-name="Path 36" d="M436,190.5l.163.377a.146.146,0,0,0,.121.088l.409.038a.147.147,0,0,1,.083.256l-.309.272a.147.147,0,0,0-.046.142l.09.4a.147.147,0,0,1-.218.158l-.354-.21a.147.147,0,0,0-.149,0l-.354.21a.147.147,0,0,1-.218-.158l.09-.4a.147.147,0,0,0-.046-.142l-.309-.272a.147.147,0,0,1,.083-.256l.409-.038a.147.147,0,0,0,.121-.088l.163-.377A.147.147,0,0,1,436,190.5Z" transform="translate(-429.73 -190.407)" fill="#fff"/>
          <path id="Path_37" data-name="Path 37" d="M519.613,190.5l.163.377a.146.146,0,0,0,.121.088l.409.038a.147.147,0,0,1,.083.256l-.309.272a.146.146,0,0,0-.046.142l.09.4a.147.147,0,0,1-.218.158l-.354-.21a.147.147,0,0,0-.149,0l-.354.21a.147.147,0,0,1-.218-.158l.09-.4a.146.146,0,0,0-.046-.142l-.308-.272a.147.147,0,0,1,.083-.256l.409-.038a.146.146,0,0,0,.121-.088l.163-.377A.147.147,0,0,1,519.613,190.5Z" transform="translate(-510.68 -190.407)" fill="#fff"/>
        </g>
        <g id="Group_31" data-name="Group 31" transform="translate(0 13.121)">
          <path id="Path_38" data-name="Path 38" d="M273.842,601.913l.163.377a.146.146,0,0,0,.121.088l.409.038a.147.147,0,0,1,.083.256l-.309.271a.147.147,0,0,0-.046.142l.09.4a.147.147,0,0,1-.218.158l-.354-.21a.146.146,0,0,0-.149,0l-.354.21a.147.147,0,0,1-.218-.158l.09-.4a.147.147,0,0,0-.046-.142l-.309-.271a.147.147,0,0,1,.083-.256l.409-.038a.146.146,0,0,0,.121-.088l.163-.377A.147.147,0,0,1,273.842,601.913Z" transform="translate(-272.747 -601.825)" fill="#fff"/>
          <path id="Path_39" data-name="Path 39" d="M352.38,601.913l.163.377a.146.146,0,0,0,.121.088l.409.038a.147.147,0,0,1,.083.256l-.309.271a.147.147,0,0,0-.046.142l.09.4a.147.147,0,0,1-.218.158l-.354-.21a.147.147,0,0,0-.149,0l-.354.21a.147.147,0,0,1-.218-.158l.09-.4a.147.147,0,0,0-.046-.142l-.309-.271a.147.147,0,0,1,.083-.256l.409-.038a.146.146,0,0,0,.121-.088l.163-.377A.147.147,0,0,1,352.38,601.913Z" transform="translate(-348.78 -601.825)" fill="#fff"/>
          <path id="Path_40" data-name="Path 40" d="M436,601.913l.163.377a.146.146,0,0,0,.121.088l.409.038a.147.147,0,0,1,.083.256l-.309.271a.147.147,0,0,0-.046.142l.09.4a.147.147,0,0,1-.218.158l-.354-.21a.147.147,0,0,0-.149,0l-.354.21a.147.147,0,0,1-.218-.158l.09-.4a.147.147,0,0,0-.046-.142l-.309-.271a.147.147,0,0,1,.083-.256l.409-.038a.146.146,0,0,0,.121-.088l.163-.377A.147.147,0,0,1,436,601.913Z" transform="translate(-429.73 -601.825)" fill="#fff"/>
          <path id="Path_41" data-name="Path 41" d="M519.613,601.913l.163.377a.146.146,0,0,0,.121.088l.409.038a.147.147,0,0,1,.083.256l-.309.271a.147.147,0,0,0-.046.142l.09.4a.147.147,0,0,1-.218.158l-.354-.21a.147.147,0,0,0-.149,0l-.354.21a.147.147,0,0,1-.218-.158l.09-.4a.147.147,0,0,0-.046-.142l-.308-.271a.147.147,0,0,1,.083-.256l.409-.038a.146.146,0,0,0,.121-.088l.163-.377A.147.147,0,0,1,519.613,601.913Z" transform="translate(-510.68 -601.825)" fill="#fff"/>
        </g>
      </g>
    </g>
  </g>
</svg>
